# xmcd CD database file
#
# Track frame offsets:
#	150
#	17650
#	32372
#	48345
#	71260
#	84842
#	99300
#	113385
#	130815
#	150952
#	166100
#	185027
#	204482
#	224592
#	242395
#
# Disc length: 3466 seconds
#
# Revision: 0
# Processed by: cddbd v1.5.2PL0 Copyright (c) Steve Scherf et al.
# Submitted via: CDex 1.70beta2
#
DISCID=ab0d880f
DTITLE=Yankee Rhyhtm Kings - Classic Jazz of the Twenties Vol. 1
DYEAR=1979
DGENRE=Jazz
TTITLE0=Big Bear Stomp
TTITLE1=Where did you stay last Night
TTITLE2=Some of these Days (voc. Dave Whitney)
TTITLE3=Original Rags
TTITLE4=Chattanooga Stomp
TTITLE5=Snake Rag
TTITLE6=Yerba Buena Blues
TTITLE7=Angry
TTITLE8=Beale Street Blues
TTITLE9=Copenhagen
TTITLE10=Down in Honky Tonk Town
TTITLE11=Someday, Sweetheart
TTITLE12=East Saint Louis Toodle-OO
TTITLE13=Dallas Blues (voc. Bob Connors)
TTITLE14=Baltimore
EXTD=YEAR: 1979
EXTT0=
EXTT1=
EXTT2=
EXTT3=
EXTT4=
EXTT5=
EXTT6=
EXTT7=
EXTT8=
EXTT9=
EXTT10=
EXTT11=
EXTT12=
EXTT13=
EXTT14=
PLAYORDER=
